<?xml version="1.0" encoding="utf-8"?>
<!-- Generator: Adobe Illustrator 16.0.0, SVG Export Plug-In . SVG Version: 6.00 Build 0)  -->
<!DOCTYPE svg PUBLIC "-//W3C//DTD SVG 1.1//EN" "http://www.w3.org/Graphics/SVG/1.1/DTD/svg11.dtd">
<svg version="1.1" id="Layer_1" xmlns="http://www.w3.org/2000/svg" xmlns:xlink="http://www.w3.org/1999/xlink" x="0px" y="0px"
	 width="117.655px" height="43.799px" viewBox="0 0 117.655 43.799" enable-background="new 0 0 117.655 43.799"
	 xml:space="preserve">
<g>
	<path fill="green" d="M22.6,9.833l-0.88-0.481c-0.266,0.133-0.67,0.26-1.213,0.382c-0.343,0.011-0.847,0.089-1.511,0.233
		c-1.163,0.653-1.871,1.035-2.126,1.146c-0.1,0.088-0.531,0.205-1.295,0.349c-0.897,0.155-1.486,0.288-1.769,0.398
		c-0.282,0.111-0.634,0.283-1.055,0.515c-0.066,0.033-0.454,0.155-1.163,0.365c-0.443,0.144-0.803,0.333-1.08,0.565
		c-0.664,0.521-1.345,1.046-2.043,1.578c-0.897,0.709-1.451,1.301-1.661,1.777c-0.31,0.122-0.46,0.244-0.449,0.365
		c0.022,0.011,0.081,0.058,0.174,0.141c0.094,0.083,0.114,0.136,0.059,0.158c-0.82,0.376-1.39,0.969-1.711,1.777
		c0.011-0.022,0,0.122-0.033,0.432c-0.111,0.055-0.21,0.105-0.299,0.149C4.38,19.804,4.292,19.987,4.28,20.23l0.1,0.183v0.083
		c-0.697,1.074-1.196,2.436-1.495,4.085c-0.056,0.233-0.111,0.576-0.166,1.03c-0.011,0.188,0.149,1.301,0.481,3.338
		c0.022,0.033,0.188,0.36,0.499,0.98c0.354,0.786,1.013,1.434,1.977,1.943c0.52,0.299,1.102,0.559,1.744,0.78
		c2.492,0.819,5.016,1.11,7.574,0.872c2.558-0.238,5.254-0.812,8.089-1.719c1.882-0.775,3.089-1.323,3.62-1.645
		c0.698-0.388,1.7-0.848,3.007-1.379c0.963-0.166,1.406-0.127,1.328,0.117c-0.188,0.553-2.813,2.176-7.872,4.865
		c0.033-0.021,0.116-0.055,0.249-0.1l-1.412,0.449c-1.008,0.354-1.556,0.531-1.645,0.531c-0.276,0.011-0.847,0.166-1.71,0.465
		c-0.41,0.089-0.919,0.205-1.528,0.35c-0.554,0.01-1.157,0.043-1.81,0.1c-0.343-0.012-0.809,0.005-1.396,0.049
		c-0.642,0.012-1.484,0.027-2.524,0.051c-0.653,0.033-1.257-0.048-1.811-0.241c-0.554-0.194-0.98-0.291-1.279-0.291
		c-0.089-0.011-0.183-0.033-0.282-0.066c-0.266-0.089-0.562-0.266-0.889-0.531s-0.501-0.404-0.523-0.415
		c-0.034,0.011-0.072,0.083-0.117,0.216c-0.011,0.044-0.044,0.071-0.1,0.083l-0.017-0.05c-0.066-0.089-0.227-0.238-0.481-0.448
		c-0.565-0.311-1.135-0.609-1.711-0.897c-0.432-0.243-0.952-0.753-1.561-1.528c-0.133-0.109-0.305-0.293-0.515-0.548v-0.249
		c-0.089-0.033-0.21-0.221-0.365-0.564c-0.056-0.045-0.116-0.078-0.183-0.1c-0.421-0.609-0.681-1.722-0.781-3.339l-0.083-0.1H0.577
		l-0.083,0.05c-0.144,0.82,0.028,1.789,0.515,2.906c0.443,0.964,0.991,1.801,1.645,2.509c0.266,0.31,0.72,0.726,1.362,1.245
		c0.155,0.066,0.382,0.178,0.681,0.332c0.133,0.111,0.16,0.166,0.083,0.166c-0.078,0.022-0.194,0.012-0.349-0.033
		c-0.498-0.166-1.165-0.658-2.001-1.478c-0.836-0.819-1.326-1.429-1.47-1.827l-0.88-2.143c-0.022-0.077-0.044-0.398-0.066-0.963
		c-0.022-0.564-0.014-0.873,0.025-0.922c0.039-0.051,0.036-0.108-0.008-0.175c-0.033-0.498-0.022-1.272,0.033-2.325
		c0.222-1.351,0.587-2.796,1.096-4.335c0.2-0.576,0.366-0.914,0.499-1.013c0.088,0.022,0.227,0.044,0.415,0.066
		c0.033-0.022,0.066-0.05,0.1-0.083c0.753-1.063,1.877-2.652,3.372-4.767c0.188-0.21,0.454-0.531,0.797-0.963
		c-0.044-0.033-0.094-0.072-0.149-0.116L6.174,12.64l0.1-0.05c0.022-0.011,0.094,0.028,0.216,0.116l0.083-0.017
		c0.155-0.188,0.526-0.493,1.113-0.914c0.476-0.387,0.802-0.736,0.979-1.046c-0.011-0.033-0.039-0.066-0.083-0.1H8.399
		c-0.056-0.044-0.044-0.11,0.033-0.199c0.144-0.199,0.385-0.343,0.723-0.432c0.337-0.089,0.551-0.155,0.64-0.2l0.05-0.05
		c0.088-0.199,0.249-0.492,0.481-0.88c0.188-0.21,0.487-0.432,0.897-0.665s0.648-0.376,0.714-0.432
		c0.1-0.144,0.282-0.354,0.548-0.631l3.089-2.275c0.41-0.333,0.841-0.659,1.295-0.98l0.083,0.066
		c0.122,0.288,0.316,0.376,0.582,0.266l3.854-1.71c0.575-0.233,0.896-0.449,0.963-0.648c0.022-0.066,0.022-0.138,0-0.216l0.05-0.066
		c2.636-1.152,4.246-1.605,4.834-1.362c0.055-0.022,0.11-0.088,0.166-0.199c0.243-0.066,0.536,0.066,0.88,0.399
		c0.587,0.62,0.842,1.224,0.764,1.81c-0.066,0.354-0.116,0.698-0.149,1.03l0.897,2.525c0.044,0.31,0.116,0.764,0.216,1.362
		c0.055,0.266,0.071,0.471,0.05,0.614c-0.066,0.277-0.1,0.449-0.1,0.515c-0.089,1.262-0.166,1.982-0.232,2.159
		c-0.111,0.332-0.269,0.582-0.474,0.748s-0.415,0.335-0.631,0.506c-0.216,0.172-0.435,0.224-0.656,0.158
		c-0.421-0.166-0.919-0.371-1.495-0.614c-0.066-0.044-0.089-0.249-0.066-0.615c0.022-0.365,0-0.559-0.066-0.581
		c-0.321-0.2-0.51-0.299-0.564-0.299l-2.441,0.416c-0.178,0.111-0.46,0.266-0.848,0.465c-0.056,0-0.509,0.02-1.361,0.058
		c-0.854,0.039-1.269,0.025-1.246-0.042c0-0.066,0.465-0.193,1.396-0.382C22.202,10.06,22.645,9.921,22.6,9.833z M2.088,29.067
		h0.116L2.221,29c0.022-0.066,0.011-0.133-0.033-0.2l-0.1-0.033H2.005c-0.011,0.101,0.005,0.194,0.05,0.282L2.088,29.067z
		 M5.908,15.114v-0.199l0.05-0.05h0.116c0.177-0.243,0.448-0.586,0.814-1.03l0.033-0.066c-0.033-0.055-0.105-0.116-0.216-0.183
		c-0.044,0.011-0.111,0.066-0.2,0.166c-1.417,1.606-2.68,3.333-3.787,5.182c-0.044,0.056-0.116,0.277-0.216,0.665
		c-0.033,0.088-0.011,0.172,0.066,0.249c0.077,0.056,0.149,0.056,0.216,0c0.033-0.088,0.072-0.21,0.116-0.365
		c0.166-0.266,0.404-0.681,0.714-1.246c0.11-0.266,0.78-1.24,2.01-2.923C5.714,15.27,5.809,15.203,5.908,15.114z M3.948,32.056
		l0.066,0.017l0.1-0.051l0.017-0.066c0-0.066-0.028-0.121-0.083-0.166l-0.133,0.033l-0.066,0.084l0.05,0.082L3.948,32.056z
		 M4.396,31.94l0.05-0.018l0.1-0.082v-0.117L4.48,31.674c-0.089-0.033-0.144-0.045-0.167-0.033
		C4.225,31.762,4.252,31.862,4.396,31.94z M5.011,32.554c0.011-0.321-0.094-0.521-0.315-0.599c-0.122-0.01-0.183,0.012-0.183,0.066
		c0.055,0.311,0.193,0.499,0.415,0.565C4.972,32.61,5,32.598,5.011,32.554z M5.376,34.116l-0.083,0.016l-0.216-0.115l-0.017-0.051
		c0.022-0.088,0.094-0.121,0.216-0.1l0.133,0.033v0.117L5.376,34.116z M5.476,32.587c0.078-0.022,0.127-0.066,0.15-0.133
		c0.022-0.066,0.017-0.116-0.017-0.149c-0.078-0.055-0.15-0.055-0.216,0c-0.066,0.033-0.088,0.089-0.066,0.166l0.05,0.083
		L5.476,32.587z M5.742,18.636c0.011,0.133-0.039,0.205-0.149,0.216c-0.044,0.011-0.111-0.011-0.2-0.066l-0.017-0.083
		c0.011-0.088,0.094-0.133,0.25-0.133C5.692,18.591,5.731,18.614,5.742,18.636z M5.892,18.32c0,0.077-0.033,0.127-0.1,0.149
		l-0.033,0.033l-0.1-0.033l-0.017-0.083l-0.017-0.05c0.044-0.056,0.094-0.1,0.149-0.133l0.1,0.033L5.892,18.32z M6.273,33.086
		l0.1-0.051c0.033-0.11,0.033-0.193,0-0.249c-0.066-0.1-0.144-0.116-0.232-0.05c-0.066,0.055-0.078,0.127-0.033,0.216
		C6.151,33.042,6.207,33.086,6.273,33.086z M7.187,11.709l0.017-0.066c0.044-0.055,0.094-0.088,0.149-0.1l0.066,0.033
		c0.022,0.078,0.005,0.133-0.05,0.166C7.314,11.743,7.253,11.732,7.187,11.709z M24.61,10.348c0-0.022,0.169-0.075,0.507-0.158
		s0.528-0.119,0.573-0.108c0.066,0.044,0.088,0.1,0.066,0.166c-0.022,0.044-0.205,0.103-0.548,0.174
		c-0.344,0.072-0.538,0.103-0.582,0.091l-0.05-0.1L24.61,10.348z"/>
	<path fill="green" d="M33.829,15.912c0.409,0.388,0.614,0.681,0.614,0.88c0,0.232,0.116,0.454,0.349,0.665h0.033l0.232-0.116
		l1.462,0.581c0,0.1,0.332,0.21,0.997,0.332l0.398,0.465v0.432c0.144,0,0.216,0.1,0.216,0.299l-0.033,0.033v0.05
		c0,0.232,0.177,0.349,0.531,0.349l0.515-0.116c0.178,0.177,0.266,0.343,0.266,0.498h0.117c0.077,0,0.116-0.066,0.116-0.199
		l0.066-0.033h0.315l0.564,0.116l0.199-0.083l0.199,0.083l0.266-0.266h0.266l0.3,0.266v0.116c0,0.078-0.277,0.205-0.831,0.382
		c-0.31,0.199-0.913,0.454-1.811,0.764c0,0.133-0.255,0.261-0.764,0.382l-0.05,1.777l0.05,0.415l-0.05,0.498l0.05,0.149
		c-0.211,1.927-0.51,3.184-0.896,3.771c-0.255,0.643-0.521,1.118-0.798,1.429c0,0.311-0.525,0.924-1.578,1.844
		c-0.797,0.586-1.527,0.88-2.192,0.88h-1.195c-0.454,0-0.759-0.116-0.914-0.349c-0.542,0-1.195-0.742-1.96-2.226
		c0-0.155-0.127-0.438-0.382-0.847c-0.31-0.665-0.465-1.213-0.465-1.645c-0.077,0-0.116-0.271-0.116-0.814v-0.033
		c0-1.008,0.459-2.713,1.379-5.115l1.195-1.993c0.41-0.775,0.997-1.583,1.761-2.425c0.133-0.31,0.531-0.669,1.196-1.08l0.199,0.083
		L33.829,15.912z M29.46,28.02l-0.066,0.033l-0.05,0.116l0.116,0.266l0.033,0.017l0.017-0.033c-0.045-0.11-0.05-0.238-0.017-0.382
		L29.46,28.02z M29.427,28.551l-0.017,0.033l0.083,0.199l0.017-0.05L29.427,28.551z M29.494,29.997l0.033,0.083l0.05,0.017
		l0.083-0.033l-0.033-0.1l-0.05-0.017L29.494,29.997z M29.942,29.947l0.017-0.05l-0.199-0.35h-0.033
		C29.781,29.78,29.853,29.913,29.942,29.947z M30.042,28.8l0.1,0.183v-0.199l-0.083-0.033L30.042,28.8z M30.141,30.511l0.133,0.066
		l-0.066-0.133l-0.033-0.017L30.141,30.511z M30.158,29.249l0.083,0.033l0.017-0.066l-0.1-0.166V29.249z M30.291,30.345l0.066,0.033
		l-0.116-0.365l-0.033-0.017C30.197,30.208,30.224,30.323,30.291,30.345z M30.39,27.837l0.1,0.033
		c0.011-0.267-0.017-0.409-0.083-0.433l-0.017-0.016V27.837z M30.506,28.12l0.05,0.133l0.017-0.05l-0.066-0.133V28.12z
		 M30.623,28.667c0.056-0.144,0.039-0.249-0.05-0.315C30.517,28.497,30.534,28.601,30.623,28.667z M32.616,31.524
		c-0.056-0.088-0.359-0.31-0.913-0.664c0.011-0.066-0.139-0.26-0.448-0.581l-0.1-0.665l0.033-0.033
		c-0.033-0.232-0.033-0.536,0-0.913c-0.056-0.011-0.017-0.359,0.116-1.046l-0.149-0.199l-0.066-0.018
		c-0.111-0.01-0.188,0.057-0.233,0.199c-0.011,0.057,0.066,0.194,0.233,0.416l-0.283,0.714c-0.021,0.066,0.022,0.255,0.133,0.565
		l-0.017,0.049l-0.266,0.232l-0.017,0.051c0.288,0.886,0.659,1.417,1.113,1.594c-0.022,0.066,0.154,0.194,0.531,0.383
		C32.439,31.663,32.549,31.635,32.616,31.524z M30.656,29.034c0.066,0.177,0.089,0.299,0.066,0.365l0.1,0.033
		c-0.021-0.311-0.072-0.477-0.149-0.498L30.656,29.034z M31.054,31.922l-0.066,0.018l0.066,0.082l0.067,0.018h0.05l-0.05-0.1
		L31.054,31.922z M31.254,32.089l0.05,0.116l0.083,0.033l0.083-0.066l-0.033-0.083l-0.083-0.033L31.254,32.089z M32.084,30.611
		l0.017-0.083c0.033-0.055-0.061-0.154-0.282-0.299l-0.083,0.05l-0.1,0.332l0.05,0.017C31.907,30.706,32.041,30.7,32.084,30.611z
		 M32.035,27.637v0.881l-0.083,0.083l0.083,0.066v0.964c0.044,0.154,0.183,0.232,0.415,0.232h0.232c0.51,0,1.213-0.421,2.109-1.263
		c0.842-1.185,1.317-2.099,1.429-2.74c0.022-0.841,0.1-1.263,0.232-1.263l-0.116-0.033v-0.88l0.116-1.013
		c-0.11-0.299-0.205-0.449-0.282-0.449h-0.299c-1.13,0.432-1.783,0.903-1.96,1.412c-0.354,0.055-0.908,0.941-1.661,2.657
		C32.107,26.879,32.035,27.329,32.035,27.637z M33.231,31.325l-0.017,0.033l0.066,0.1c0.1,0,0.16-0.021,0.183-0.066v-0.016
		l-0.033-0.018L33.231,31.325z"/>
	<path fill="green" d="M52.098,19.316l2.675,0.698l0.797,0.698c0,0.476,0.26,0.853,0.78,1.129c0,0.111,0.199,0.343,0.599,0.698
		l0.432,1.212c0.232,0.521,0.409,1.273,0.531,2.259c-0.1,1.539-0.305,2.436-0.614,2.69c0,0.599-0.261,1.202-0.781,1.811
		c-0.554,1.074-1.361,1.972-2.425,2.69h-0.183l-0.083-0.082v-0.084c0.631-1.019,0.947-1.683,0.947-1.992H54.44
		c-1.473,1.582-2.602,2.59-3.388,3.021l-0.183-0.166l1.129-1.129c1.473-1.583,2.342-2.939,2.607-4.069
		c0.233-0.232,0.35-0.554,0.35-0.964v-1.129c0-1.328-0.521-2.253-1.562-2.773l-0.78,0.083l-0.615-0.166
		c-0.93,0.243-1.566,0.62-1.91,1.13c-1.107,1.317-1.683,2.242-1.727,2.773l0.266,1.645c-0.222,0.077-0.482,0.509-0.781,1.295
		c-1.063,1.385-2.021,2.109-2.873,2.176c-1.783,0-3.023-0.725-3.721-2.176c-0.421-0.299-0.797-0.819-1.129-1.561
		c-0.421-0.2-0.825-1.063-1.213-2.592c-0.232,0-0.438-0.637-0.614-1.91c0.255-0.93,0.631-1.395,1.129-1.395
		c1.041,0,2.431,0.348,4.169,1.046h0.166C46.506,20.939,49.286,19.316,52.098,19.316z M44.807,28.601l0.249,0.183h0.1l0.249-0.266
		l-0.083-0.432h-0.266C44.89,28.142,44.807,28.313,44.807,28.601z M51.75,20.712c0.133,0.122,0.77,0.327,1.91,0.614
		c0.022,0.122,0.393,0.382,1.113,0.781l0.531,1.113l-0.083,0.1c0.21,0.388,0.382,0.936,0.515,1.644c0.11,0,0.227,0.664,0.349,1.994
		l0.349,0.266h0.166c0.178-0.056,0.267-0.232,0.267-0.532c0-0.1-0.205-0.299-0.615-0.598l0.1-1.479c0-0.155-0.177-0.47-0.531-0.946
		v-0.1l0.349-0.598v-0.083c-0.985-1.451-1.91-2.176-2.773-2.176c0-0.144-0.377-0.26-1.13-0.349
		C51.976,20.363,51.805,20.479,51.75,20.712z M53.128,22.007v0.183c0,0.122,0.232,0.238,0.697,0.349l0.083-0.1v-0.681h-0.083
		C53.405,21.758,53.172,21.841,53.128,22.007z"/>
	<path fill="green" d="M60.619,10.381c1.118,1.295,1.678,2.314,1.678,3.056c-0.166,0.642-0.282,2.192-0.349,4.65
		c0.044,0.277,0.276,0.521,0.697,0.731c6.09,0.244,10.331,0.531,12.723,0.864h0.482v0.299l-5.664,0.615l0.73-0.033
		c0.321,0,0.56,0.188,0.715,0.564c0,0.232-0.599,0.482-1.794,0.748c0,0.487-0.92,0.819-2.758,0.997
		c-1.273,0.963-2.624,1.445-4.052,1.445c-0.477,0-0.881,0.199-1.213,0.599l-0.116,5.813v4.783c0,2.004,0.16,3.699,0.481,5.083v1.03
		c-0.543,1.449-0.979,2.176-1.313,2.176c-0.321,0-0.608-0.532-0.863-1.596l0.133-8.586v-1.877l0.116-3.189h-0.116
		c-0.232,0.211-0.709,1.174-1.429,2.891l-0.963,0.447v-0.148l1.08-2.475c0.376-0.986,0.697-2.242,0.963-3.771l-1.213-1.594
		l-0.349-2.192c0-1.539,0.315-2.309,0.947-2.309c0.886-0.753,1.328-2.065,1.328-3.937c0-0.897-0.166-2.109-0.498-3.638
		C60.004,11.184,60.209,10.702,60.619,10.381z"/>
	<path fill="green" d="M73.408,21.027l0.432-0.216c1.152,0,2.431,0.664,3.837,1.993c0.288,0.565,0.432,1.157,0.432,1.777
		c-0.376,0.897-0.803,1.346-1.278,1.346c-2.524,0-4.567,0.57-6.129,1.71c-0.111,0-0.465,0.217-1.063,0.648h-0.133v-0.083
		c0.188-0.199,0.283-0.388,0.283-0.565h-0.366l-0.996,0.781l-0.216-0.216h-0.066c-0.854,0.741-1.279,1.384-1.279,1.927l-0.066,0.066
		v0.149c0,0.122,0.166,0.216,0.498,0.282c0.687,0,2.414-1.141,5.183-3.422c1.34-0.564,2.552-0.847,3.638-0.847
		c1.195,0,2.143,1.278,2.84,3.837h0.149l0.349-0.283h0.149c0,0.101,0.072,0.15,0.216,0.15l0.066,0.066v0.066
		c0,0.487-0.116,1.058-0.349,1.711l0.349,0.432c0,0.188-0.382,0.354-1.146,0.498l-0.282,0.216l-0.283-0.083
		c-0.421,0.178-0.631,0.393-0.631,0.648H77.46c-0.222-0.189-0.813-0.377-1.777-0.565c-0.044-0.166-0.448-0.592-1.212-1.278
		c-0.443-0.997-0.676-1.877-0.698-2.641c-0.276-0.232-0.515-0.35-0.714-0.35h-0.432v-0.083c0-0.077,0.216-0.144,0.647-0.199v-0.149
		l-0.149-0.149c-0.51,0-1.268,0.476-2.275,1.429c0,0.432-0.477,1.096-1.429,1.992c-0.608,0.565-1.151,0.848-1.627,0.848h-0.499
		c-1.273,0-2.248-0.564-2.923-1.694l-0.282-1.362v-0.498l0.78-1.346c0.521-0.608,0.781-0.963,0.781-1.063l0.365-0.282l0.133,0.133
		h0.149l0.349-0.216v-0.216h-0.216c0.144-0.222,0.764-0.647,1.86-1.278c0.154-0.277,0.393-0.416,0.714-0.416v-0.216h-0.149v-0.149
		c1.805-1.03,2.968-1.766,3.488-2.209v-0.133L73.408,21.027z M68.01,28.701h0.066v0.083l-0.149,0.133h-0.066V28.85L68.01,28.701z"/>
	<path fill="green" d="M88.041,18.17l0.083,0.133l1.113-0.133l0.598,0.349l0.531-0.166c0.077,0.11,0.144,0.21,0.199,0.299
		c0.177,0.21,0.388,0.438,0.632,0.681l0.199,0.482v0.481l-0.116,0.15c0.398,0.088,0.691,0.681,0.88,1.777l-0.083,0.166l0.083,0.748
		v0.366c0,0.41-0.377,1.102-1.13,2.076c0,0.576-0.515,0.863-1.544,0.863c-0.854,0-1.401-0.359-1.645-1.08
		c-0.155,0-0.46-0.16-0.913-0.48l0.166-0.698c-0.111-0.365-0.338-0.564-0.682-0.599c-1.34,0-2.392,0.582-3.155,1.744
		c-0.354,0.145-0.753,0.975-1.196,2.492l0.066,0.581l-0.066,0.665c0.044,0.021,0.08,0.086,0.108,0.19
		c0.027,0.105,0.041,0.263,0.041,0.474c0.299,0.653,0.659,1.112,1.08,1.379c0.907,0.741,1.749,1.112,2.524,1.112l0.066-0.149
		l0.166,0.149l3.87-0.813c2.558-1.296,4.833-2.764,6.826-4.402l0.199,0.184c-1.517,2.016-3.659,3.748-6.428,5.198v-0.166
		l-0.681,0.481l-0.066-0.133c-0.398,0.299-0.747,0.448-1.047,0.448h-0.515l-0.166,0.216l-0.315-0.133h-0.282l0.315,0.133v0.217
		h-0.598l-0.232-0.217c0,0.421-0.571,0.631-1.711,0.631h-0.814l-0.199,0.166h-0.465c-0.587-0.387-1.146-0.58-1.678-0.58
		c-0.188-0.266-0.604-0.604-1.245-1.014l-0.166-0.216c-0.688-1.13-1.03-2.304-1.03-3.521c0-2.968,1.528-5.868,4.584-8.703
		C85.721,18.78,87,18.17,88.041,18.17z M89.917,32.006v0.216H89.37l-0.332,0.349l0.332-0.133l0.199,0.133
		c0.044-0.088,0.1-0.158,0.166-0.207c0.066-0.051,0.183-0.098,0.349-0.142L89.917,32.006z"/>
	<path fill="green" d="M96.113,10.381c1.118,1.295,1.678,2.314,1.678,3.056c-0.166,0.642-0.282,2.192-0.349,4.65
		c0.044,0.277,0.276,0.521,0.697,0.731c6.09,0.244,10.331,0.531,12.723,0.864h0.482v0.299l-5.664,0.615l0.73-0.033
		c0.321,0,0.56,0.188,0.715,0.564c0,0.232-0.599,0.482-1.794,0.748c0,0.487-0.92,0.819-2.758,0.997
		c-1.273,0.963-2.624,1.445-4.052,1.445c-0.477,0-0.881,0.199-1.213,0.599l-0.116,5.813v4.783c0,2.004,0.16,3.699,0.481,5.083v1.03
		c-0.543,1.449-0.979,2.176-1.313,2.176c-0.321,0-0.608-0.532-0.863-1.596l0.133-8.586v-1.877l0.116-3.189h-0.116
		c-0.232,0.211-0.709,1.174-1.429,2.891l-0.963,0.447v-0.148l1.08-2.475c0.376-0.986,0.697-2.242,0.963-3.771l-1.213-1.594
		l-0.349-2.192c0-1.539,0.315-2.309,0.947-2.309c0.886-0.753,1.328-2.065,1.328-3.937c0-0.897-0.166-2.109-0.498-3.638
		C95.499,11.184,95.704,10.702,96.113,10.381z"/>
	<path fill="green" d="M115.895,7.723h0.266c0.608,0,1.106,1.218,1.494,3.654c-0.188,1.528-0.459,2.292-0.813,2.292l-4.053-0.266
		h-0.415c-2.646,0-5.349,1.622-8.105,4.866l-1.213,2.558v0.133c0,2.071,1.396,3.106,4.186,3.106c2.536,0,4.43,0.41,5.681,1.229
		l2.84-1.76l0.399,0.133l0.266-0.266v0.398c-0.354,0-1.163,0.631-2.425,1.893c1.616,1.053,2.425,2.043,2.425,2.974v0.946
		l-1.08,1.611c-1.361,1.086-2.485,1.628-3.371,1.628c-0.72,0-1.219-0.858-1.495-2.574c0-0.874,0.365-2.087,1.097-3.638h-0.15
		c-0.598-0.365-1.898-0.637-3.902-0.813v-0.134l-1.628,0.134c-1.562,0-3.001-0.448-4.318-1.346
		c-1.107-1.173-1.694-2.303-1.761-3.388v-1.08c0-0.521,0.227-1.511,0.681-2.973h0.133l0.133,0.149h0.133l2.293-3.521
		c0.808-1.107,1.799-1.96,2.973-2.558c1.251-1.296,3.864-2.287,7.84-2.973C114.931,8.139,115.562,8,115.895,7.723z M100.763,17.324
		l-0.398,1.345v0.133h0.133l0.398-1.345v-0.133H100.763z M100.498,21.908v0.133c0.775,1.716,1.406,2.574,1.894,2.574h0.133v-0.133
		c-0.509,0-1.141-0.858-1.894-2.574H100.498z M111.293,30.013c0,0.697,0.228,1.151,0.682,1.362l0.813-0.947l0.266-0.549
		c-0.155-1.516-0.426-2.324-0.813-2.424C111.61,28.086,111.293,28.939,111.293,30.013z"/>
</g>
</svg>
