<?xml version="1.0" encoding="utf-8"?>
<svg version="1.1" xmlns="http://www.w3.org/2000/svg" xmlns:xlink="http://www.w3.org/1999/xlink" x="0" y="0" width="100" height="100" viewbox = "0 0 100 100">	<rect x="0" y="0" width="100" height="100" fill="none" />
	<circle cx="52" cy="52" r="43" stroke="black" stroke-width="5" fill="none" opacity="0.7" />
	<circle cx="50" cy="50" r="45" stroke="none" fill="#009800" />
	<circle cx="50" cy="50" r="30" stroke="black" stroke-width="5" opacity="0.3" fill="none" />
	
	
	
	<rect x="46" y="27" width="10" height="17" fill="black" stroke="none" opacity="0.7"/>
	<rect x="26" y="53" width="10" height="17" fill="black" stroke="none" opacity="0.7"/>
	<rect x="46" y="53" width="10" height="17" fill="black" stroke="none" opacity="0.7"/>
	<rect x="66" y="53" width="10" height="17" fill="black" stroke="none" opacity="0.7"/>
	
	<path stroke="white" stroke-width="1" d="M29,48 h40" />
	<path stroke="white" stroke-width="1" d="M29.5,48 v10" />
	<path stroke="white" stroke-width="1" d="M50,48 v10" />
	<path stroke="white" stroke-width="1" d="M68.5,48 v10" />
	
	<path stroke="white" stroke-width="1" d="M50,48 v-10" />
	 
	<rect x="44" y="24" width="10" height="17" fill="white" stroke="#009800" stroke-width="1" />
	<rect x="24" y="51" width="10" height="17" fill="white" stroke="#009800" stroke-width="1" />
	<rect x="44" y="51" width="10" height="17" fill="white" stroke="#009800" stroke-width="1" />
	<rect x="64" y="51" width="10" height="17" fill="white" stroke="#009800" stroke-width="1" />
	
	
	
	<circle cx="50" cy="50" r="38" stroke="white" stroke-width="10" fill="none" />
	
	
</svg>