<?xml version="1.0" encoding="utf-8"?>
<svg  version="1.1" xmlns="http://www.w3.org/2000/svg" xmlns:xlink="http://www.w3.org/1999/xlink" viewBox="0 0 1920 1080" preserveAspectRatio="xMidYMid slice" aria-hidden="true">
    <defs>
      <linearGradient id="posterBg" x1="0" y1="0" x2="1" y2="0">
        <stop offset="0" stop-color="#d31322"/>
        <stop offset="0.22" stop-color="#8f1024"/>
        <stop offset="0.5" stop-color="#171032"/>
        <stop offset="0.75" stop-color="#0d3fc0"/>
        <stop offset="1" stop-color="#082a86"/>
      </linearGradient>
      <radialGradient id="centerLight" cx="50%" cy="42%" r="55%">
        <stop offset="0" stop-color="#ffffff" stop-opacity="0.36"/>
        <stop offset="0.28" stop-color="#ffd24d" stop-opacity="0.18"/>
        <stop offset="1" stop-color="#000000" stop-opacity="0"/>
      </radialGradient>
      <linearGradient id="redSweep" x1="0" y1="0" x2="1" y2="1">
        <stop offset="0" stop-color="#ff3752" stop-opacity="0.72"/>
        <stop offset="1" stop-color="#ff8a00" stop-opacity="0"/>
      </linearGradient>
      <linearGradient id="blueSweep" x1="1" y1="0" x2="0" y2="1">
        <stop offset="0" stop-color="#2372ff" stop-opacity="0.8"/>
        <stop offset="1" stop-color="#00ccff" stop-opacity="0"/>
      </linearGradient>
      <pattern id="grainGrid" width="44" height="44" patternUnits="userSpaceOnUse">
        <path d="M44 0H0V44" fill="none" stroke="#ffffff" stroke-opacity="0.035" stroke-width="1"/>
      </pattern>
    </defs>
    <rect width="1920" height="1080" fill="url(#posterBg)"/>
    <rect width="1920" height="1080" fill="url(#centerLight)"/>
    <path d="M-70 120 C290 52 520 170 780 255 C1010 330 1215 315 1480 230 C1660 172 1800 120 1990 108" stroke="#ffffff" stroke-opacity="0.18" stroke-width="2" fill="none"/>
    <path d="M-80 812 C290 706 545 830 830 760 C1124 690 1290 548 1590 610 C1768 648 1905 720 2020 660" stroke="#ffffff" stroke-opacity="0.14" stroke-width="2" fill="none"/>
    <g fill="none" stroke-linecap="round">
      <path d="M-120 74 C170 150 358 166 546 202 C688 229 776 268 858 350" stroke="url(#redSweep)" stroke-width="2"/>
      <path d="M-88 108 C184 172 374 190 568 236 C714 270 804 306 895 402" stroke="url(#redSweep)" stroke-width="2"/>
      <path d="M-44 145 C204 192 394 224 590 278 C742 320 838 365 930 458" stroke="url(#redSweep)" stroke-width="2"/>
      <path d="M-90 930 C210 870 438 860 642 902 C796 934 894 984 1004 1080" stroke="url(#redSweep)" stroke-width="2"/>
      <path d="M2040 66 C1740 136 1552 150 1366 198 C1218 237 1130 280 1038 370" stroke="url(#blueSweep)" stroke-width="2"/>
      <path d="M2020 110 C1726 175 1536 194 1340 250 C1192 292 1102 336 1007 430" stroke="url(#blueSweep)" stroke-width="2"/>
      <path d="M1995 160 C1744 208 1550 242 1350 305 C1208 350 1110 400 1018 500" stroke="url(#blueSweep)" stroke-width="2"/>
      <path d="M1980 924 C1700 862 1490 852 1302 894 C1150 928 1044 980 930 1080" stroke="url(#blueSweep)" stroke-width="2"/>
    </g>
    <path d="M150 705 C268 584 292 370 496 294 C648 238 802 270 962 162" fill="none" stroke="#ffffff" stroke-opacity="0.08" stroke-width="120"/>
    <path d="M1770 705 C1652 584 1628 370 1424 294 C1272 238 1118 270 958 162" fill="none" stroke="#ffffff" stroke-opacity="0.08" stroke-width="120"/>
    <rect width="1920" height="1080" fill="url(#grainGrid)"/>
  </svg>
